<svg xmlns="http://www.w3.org/2000/svg" xmlns:xlink="http://www.w3.org/1999/xlink" version="1.1" id="Layer_1" x="0" y="0" viewBox="0 0 774 774" xml:space="preserve" enable-background="new 0 0 774 774">
	<g id="icon--checkmark" fill="#47aa42">
		<path d="M387 0C173.3 0 0 173.3 0 387s173.3 387 387 387 387-173.3 387-387S600.7 0 387 0zM575.7 292.4L339.7 528.3c-0.2 0.2-0.4 0.3-0.6 0.5 -1.1 1.5-2.3 3.1-3.7 4.5 -14.1 14.1-36.9 14.1-51 0l-86.2-74.1c-14.1-14-14.1-36.8 0-50.9 14.1-14.1 36.8-14.1 50.9 0l57.8 49.6L524 240.7c14.3-14.3 37.4-14.3 51.7 0C589.9 255 589.9 278.1 575.7 292.4z"/>
	</g>
</svg>
